<mxfile host="app.diagrams.net" modified="2022-12-30T13:06:40.034Z" agent="5.0 (X11)" etag="yB8kt_HkhWK-a8R75TY6" version="20.6.2" type="github">
  <diagram name="Page-1" id="58cdce13-f638-feb5-8d6f-7d28b1aa9fa0">
    <mxGraphModel dx="782" dy="667" grid="1" gridSize="10" guides="1" tooltips="1" connect="1" arrows="1" fold="1" page="1" pageScale="1" pageWidth="1100" pageHeight="850" background="none" math="0" shadow="0">
      <root>
        <mxCell id="0" />
        <mxCell id="1" parent="0" />
        <mxCell id="0zVEUA0P2eVRNmL8cQzy-131" value="Record on SD" style="rounded=1;whiteSpace=wrap;html=1;arcSize=40;fontColor=#000000;fillColor=#ffffc0;strokeColor=#ff0000;verticalAlign=top;align=left;" vertex="1" parent="1">
          <mxGeometry x="160" y="850" width="320" height="240" as="geometry" />
        </mxCell>
        <mxCell id="0zVEUA0P2eVRNmL8cQzy-132" style="edgeStyle=orthogonalEdgeStyle;rounded=1;orthogonalLoop=1;jettySize=auto;html=1;exitX=0.5;exitY=0;exitDx=0;exitDy=0;entryX=0.5;entryY=0;entryDx=0;entryDy=0;fontSize=14;strokeColor=#FF0000;" edge="1" parent="1" source="0zVEUA0P2eVRNmL8cQzy-131" target="0zVEUA0P2eVRNmL8cQzy-124">
          <mxGeometry relative="1" as="geometry">
            <Array as="points">
              <mxPoint x="320" y="870" />
              <mxPoint x="250" y="870" />
            </Array>
          </mxGeometry>
        </mxCell>
        <mxCell id="0zVEUA0P2eVRNmL8cQzy-15" value="normal" style="rounded=1;whiteSpace=wrap;html=1;" vertex="1" parent="1">
          <mxGeometry x="320" y="120" width="120" height="60" as="geometry" />
        </mxCell>
        <mxCell id="0zVEUA0P2eVRNmL8cQzy-16" value="removal pending" style="rounded=1;whiteSpace=wrap;html=1;" vertex="1" parent="1">
          <mxGeometry x="490" y="180" width="120" height="60" as="geometry" />
        </mxCell>
        <mxCell id="0zVEUA0P2eVRNmL8cQzy-17" value="absent" style="rounded=1;whiteSpace=wrap;html=1;" vertex="1" parent="1">
          <mxGeometry x="320" y="240" width="120" height="60" as="geometry" />
        </mxCell>
        <mxCell id="0zVEUA0P2eVRNmL8cQzy-37" value="" style="endArrow=classic;html=1;rounded=1;edgeStyle=orthogonalEdgeStyle;entryX=1;entryY=0.5;entryDx=0;entryDy=0;" edge="1" parent="1" source="0zVEUA0P2eVRNmL8cQzy-16" target="0zVEUA0P2eVRNmL8cQzy-17">
          <mxGeometry relative="1" as="geometry">
            <mxPoint x="80" y="80" as="sourcePoint" />
            <mxPoint x="620" y="410" as="targetPoint" />
            <Array as="points">
              <mxPoint x="550" y="270" />
            </Array>
          </mxGeometry>
        </mxCell>
        <mxCell id="0zVEUA0P2eVRNmL8cQzy-39" value="SD removed" style="edgeLabel;resizable=0;html=1;align=left;verticalAlign=bottom;" connectable="0" vertex="1" parent="0zVEUA0P2eVRNmL8cQzy-37">
          <mxGeometry x="-1" relative="1" as="geometry">
            <mxPoint y="20" as="offset" />
          </mxGeometry>
        </mxCell>
        <mxCell id="0zVEUA0P2eVRNmL8cQzy-40" value="" style="endArrow=classic;html=1;rounded=1;edgeStyle=orthogonalEdgeStyle;" edge="1" parent="1" source="0zVEUA0P2eVRNmL8cQzy-15" target="0zVEUA0P2eVRNmL8cQzy-16">
          <mxGeometry relative="1" as="geometry">
            <mxPoint x="100" y="100" as="sourcePoint" />
            <mxPoint x="260" y="64" as="targetPoint" />
            <Array as="points">
              <mxPoint x="380" y="90" />
              <mxPoint x="580" y="90" />
            </Array>
          </mxGeometry>
        </mxCell>
        <mxCell id="0zVEUA0P2eVRNmL8cQzy-41" value="LED pattern 1" style="edgeLabel;resizable=0;html=1;align=center;verticalAlign=middle;" connectable="0" vertex="1" parent="0zVEUA0P2eVRNmL8cQzy-40">
          <mxGeometry relative="1" as="geometry" />
        </mxCell>
        <mxCell id="0zVEUA0P2eVRNmL8cQzy-42" value="button" style="edgeLabel;resizable=0;html=1;align=left;verticalAlign=bottom;" connectable="0" vertex="1" parent="0zVEUA0P2eVRNmL8cQzy-40">
          <mxGeometry x="-1" relative="1" as="geometry" />
        </mxCell>
        <mxCell id="0zVEUA0P2eVRNmL8cQzy-56" value="" style="endArrow=classic;html=1;rounded=1;edgeStyle=orthogonalEdgeStyle;exitX=0.25;exitY=1;exitDx=0;exitDy=0;" edge="1" parent="1" source="0zVEUA0P2eVRNmL8cQzy-17" target="0zVEUA0P2eVRNmL8cQzy-15">
          <mxGeometry relative="1" as="geometry">
            <mxPoint x="225" y="230" as="sourcePoint" />
            <mxPoint x="149.5" y="150" as="targetPoint" />
            <Array as="points">
              <mxPoint x="350" y="320" />
              <mxPoint x="270" y="320" />
              <mxPoint x="270" y="150" />
            </Array>
          </mxGeometry>
        </mxCell>
        <mxCell id="0zVEUA0P2eVRNmL8cQzy-57" value="LED pattern 2" style="edgeLabel;resizable=0;html=1;align=center;verticalAlign=middle;" connectable="0" vertex="1" parent="0zVEUA0P2eVRNmL8cQzy-56">
          <mxGeometry relative="1" as="geometry" />
        </mxCell>
        <mxCell id="0zVEUA0P2eVRNmL8cQzy-58" value="insert + button" style="edgeLabel;resizable=0;html=1;align=left;verticalAlign=bottom;" connectable="0" vertex="1" parent="0zVEUA0P2eVRNmL8cQzy-56">
          <mxGeometry x="-1" relative="1" as="geometry">
            <mxPoint y="20" as="offset" />
          </mxGeometry>
        </mxCell>
        <mxCell id="0zVEUA0P2eVRNmL8cQzy-94" value="" style="endArrow=classic;html=1;rounded=1;edgeStyle=orthogonalEdgeStyle;entryX=1;entryY=0.5;entryDx=0;entryDy=0;" edge="1" parent="1" source="0zVEUA0P2eVRNmL8cQzy-16" target="0zVEUA0P2eVRNmL8cQzy-15">
          <mxGeometry relative="1" as="geometry">
            <mxPoint x="570" y="130" as="sourcePoint" />
            <mxPoint x="440" y="130" as="targetPoint" />
            <Array as="points">
              <mxPoint x="520" y="150" />
            </Array>
          </mxGeometry>
        </mxCell>
        <mxCell id="0zVEUA0P2eVRNmL8cQzy-95" value="timeout" style="edgeLabel;resizable=0;html=1;align=left;verticalAlign=bottom;" connectable="0" vertex="1" parent="0zVEUA0P2eVRNmL8cQzy-94">
          <mxGeometry x="-1" relative="1" as="geometry" />
        </mxCell>
        <mxCell id="0zVEUA0P2eVRNmL8cQzy-98" value="" style="endArrow=classic;html=1;rounded=1;edgeStyle=orthogonalEdgeStyle;" edge="1" parent="1">
          <mxGeometry relative="1" as="geometry">
            <mxPoint x="610" y="225" as="sourcePoint" />
            <mxPoint x="610" y="195" as="targetPoint" />
            <Array as="points">
              <mxPoint x="700" y="225" />
              <mxPoint x="700" y="195" />
            </Array>
          </mxGeometry>
        </mxCell>
        <mxCell id="0zVEUA0P2eVRNmL8cQzy-99" value="button" style="edgeLabel;resizable=0;html=1;align=left;verticalAlign=bottom;" connectable="0" vertex="1" parent="0zVEUA0P2eVRNmL8cQzy-98">
          <mxGeometry x="-1" relative="1" as="geometry" />
        </mxCell>
        <mxCell id="0zVEUA0P2eVRNmL8cQzy-100" value="LED pattern 1" style="edgeLabel;html=1;align=center;verticalAlign=middle;resizable=0;points=[];" vertex="1" connectable="0" parent="0zVEUA0P2eVRNmL8cQzy-98">
          <mxGeometry x="-0.0952" y="3" relative="1" as="geometry">
            <mxPoint as="offset" />
          </mxGeometry>
        </mxCell>
        <mxCell id="0zVEUA0P2eVRNmL8cQzy-110" value="User&#39;s Mental Model" style="text;html=1;strokeColor=none;fillColor=none;align=center;verticalAlign=middle;whiteSpace=wrap;rounded=0;fontSize=14;" vertex="1" parent="1">
          <mxGeometry x="305" y="20" width="215" height="30" as="geometry" />
        </mxCell>
        <mxCell id="0zVEUA0P2eVRNmL8cQzy-115" value="" style="ellipse;html=1;shape=startState;fillColor=#000000;strokeColor=#ff0000;" vertex="1" parent="1">
          <mxGeometry x="465" y="460" width="30" height="30" as="geometry" />
        </mxCell>
        <mxCell id="0zVEUA0P2eVRNmL8cQzy-116" value="" style="edgeStyle=orthogonalEdgeStyle;html=1;verticalAlign=bottom;endArrow=open;endSize=8;strokeColor=#ff0000;rounded=1;" edge="1" parent="1" source="0zVEUA0P2eVRNmL8cQzy-115">
          <mxGeometry relative="1" as="geometry">
            <mxPoint x="480" y="550" as="targetPoint" />
          </mxGeometry>
        </mxCell>
        <mxCell id="0zVEUA0P2eVRNmL8cQzy-117" value="Unknown" style="rounded=1;whiteSpace=wrap;html=1;arcSize=40;fontColor=#000000;fillColor=#ffffc0;strokeColor=#ff0000;verticalAlign=top;align=left;" vertex="1" parent="1">
          <mxGeometry x="320" y="550" width="320" height="220" as="geometry" />
        </mxCell>
        <mxCell id="0zVEUA0P2eVRNmL8cQzy-120" value="Guess circumstances based on state data in EEPROM, state of RTC, and presence of SD card" style="text;html=1;strokeColor=#666666;fillColor=#f5f5f5;align=center;verticalAlign=middle;whiteSpace=wrap;rounded=0;fontSize=14;fontColor=#333333;" vertex="1" parent="1">
          <mxGeometry x="390" y="570" width="180" height="100" as="geometry" />
        </mxCell>
        <mxCell id="0zVEUA0P2eVRNmL8cQzy-121" value="" style="edgeStyle=orthogonalEdgeStyle;html=1;verticalAlign=bottom;endArrow=open;endSize=8;strokeColor=#ff0000;rounded=1;" edge="1" parent="1">
          <mxGeometry relative="1" as="geometry">
            <mxPoint x="479.5" y="570" as="targetPoint" />
            <mxPoint x="479.5" y="550" as="sourcePoint" />
          </mxGeometry>
        </mxCell>
        <mxCell id="0zVEUA0P2eVRNmL8cQzy-122" value="Where to record?" style="rhombus;whiteSpace=wrap;html=1;fillColor=#ffffc0;strokeColor=#ff0000;" vertex="1" parent="1">
          <mxGeometry x="440" y="690" width="80" height="60" as="geometry" />
        </mxCell>
        <mxCell id="0zVEUA0P2eVRNmL8cQzy-123" value="" style="edgeStyle=orthogonalEdgeStyle;html=1;verticalAlign=bottom;endArrow=open;endSize=8;strokeColor=#ff0000;rounded=1;" edge="1" parent="1">
          <mxGeometry relative="1" as="geometry">
            <mxPoint x="479.5" y="690" as="targetPoint" />
            <mxPoint x="479.5" y="670" as="sourcePoint" />
          </mxGeometry>
        </mxCell>
        <mxCell id="0zVEUA0P2eVRNmL8cQzy-124" value="Was SD replaced?" style="rhombus;whiteSpace=wrap;html=1;fillColor=#ffffc0;strokeColor=#ff0000;" vertex="1" parent="1">
          <mxGeometry x="210" y="890" width="80" height="60" as="geometry" />
        </mxCell>
        <mxCell id="0zVEUA0P2eVRNmL8cQzy-135" style="edgeStyle=orthogonalEdgeStyle;rounded=1;orthogonalLoop=1;jettySize=auto;html=1;exitX=0.5;exitY=1;exitDx=0;exitDy=0;entryX=0.5;entryY=1;entryDx=0;entryDy=0;fontSize=14;strokeColor=#FF0000;" edge="1" parent="1" source="0zVEUA0P2eVRNmL8cQzy-125" target="0zVEUA0P2eVRNmL8cQzy-131">
          <mxGeometry relative="1" as="geometry">
            <Array as="points">
              <mxPoint x="250" y="1070" />
              <mxPoint x="320" y="1070" />
            </Array>
          </mxGeometry>
        </mxCell>
        <mxCell id="0zVEUA0P2eVRNmL8cQzy-125" value="Do other stuff for a miniscule time duration" style="text;html=1;strokeColor=#666666;fillColor=#f5f5f5;align=center;verticalAlign=middle;whiteSpace=wrap;rounded=0;fontSize=14;fontColor=#333333;" vertex="1" parent="1">
          <mxGeometry x="190" y="980" width="120" height="70" as="geometry" />
        </mxCell>
        <mxCell id="0zVEUA0P2eVRNmL8cQzy-130" style="edgeStyle=orthogonalEdgeStyle;rounded=1;orthogonalLoop=1;jettySize=auto;html=1;exitX=0.5;exitY=1;exitDx=0;exitDy=0;entryX=1;entryY=0.5;entryDx=0;entryDy=0;fontSize=14;strokeColor=#FF0000;" edge="1" parent="1" source="0zVEUA0P2eVRNmL8cQzy-126" target="0zVEUA0P2eVRNmL8cQzy-125">
          <mxGeometry relative="1" as="geometry" />
        </mxCell>
        <mxCell id="0zVEUA0P2eVRNmL8cQzy-126" value="Move weather data and logs from EEPROM to SD" style="text;html=1;strokeColor=#666666;fillColor=#f5f5f5;align=center;verticalAlign=middle;whiteSpace=wrap;rounded=0;fontSize=14;fontColor=#333333;" vertex="1" parent="1">
          <mxGeometry x="330" y="885" width="120" height="70" as="geometry" />
        </mxCell>
        <mxCell id="0zVEUA0P2eVRNmL8cQzy-136" value="yes" style="edgeStyle=orthogonalEdgeStyle;html=1;align=left;verticalAlign=bottom;endArrow=open;endSize=8;strokeColor=#ff0000;rounded=1;" edge="1" parent="1">
          <mxGeometry x="-1" relative="1" as="geometry">
            <mxPoint x="330" y="919" as="targetPoint" />
            <mxPoint x="290" y="919" as="sourcePoint" />
            <Array as="points">
              <mxPoint x="330" y="919" />
            </Array>
          </mxGeometry>
        </mxCell>
        <mxCell id="0zVEUA0P2eVRNmL8cQzy-137" value="no" style="edgeStyle=orthogonalEdgeStyle;html=1;align=left;verticalAlign=bottom;endArrow=open;endSize=8;strokeColor=#ff0000;rounded=1;" edge="1" parent="1">
          <mxGeometry x="-1" relative="1" as="geometry">
            <mxPoint x="250" y="980" as="targetPoint" />
            <mxPoint x="249.5" y="950" as="sourcePoint" />
            <Array as="points">
              <mxPoint x="249.5" y="970" />
              <mxPoint x="249.5" y="970" />
            </Array>
          </mxGeometry>
        </mxCell>
        <mxCell id="0zVEUA0P2eVRNmL8cQzy-138" value="SD" style="edgeStyle=orthogonalEdgeStyle;html=1;align=left;verticalAlign=bottom;endArrow=open;endSize=8;strokeColor=#ff0000;rounded=1;exitX=0;exitY=0.5;exitDx=0;exitDy=0;" edge="1" parent="1" source="0zVEUA0P2eVRNmL8cQzy-122">
          <mxGeometry x="-0.84" relative="1" as="geometry">
            <mxPoint x="320" y="850" as="targetPoint" />
            <mxPoint x="250" y="730" as="sourcePoint" />
            <Array as="points">
              <mxPoint x="320" y="720" />
            </Array>
            <mxPoint as="offset" />
          </mxGeometry>
        </mxCell>
        <mxCell id="0zVEUA0P2eVRNmL8cQzy-139" value="EEPROM" style="edgeStyle=orthogonalEdgeStyle;html=1;align=left;verticalAlign=bottom;endArrow=open;endSize=8;strokeColor=#ff0000;rounded=1;entryX=0.5;entryY=0;entryDx=0;entryDy=0;" edge="1" parent="1" target="0zVEUA0P2eVRNmL8cQzy-141">
          <mxGeometry x="-1" relative="1" as="geometry">
            <mxPoint x="560" y="820" as="targetPoint" />
            <mxPoint x="520" y="719.5" as="sourcePoint" />
            <Array as="points">
              <mxPoint x="660" y="720" />
            </Array>
          </mxGeometry>
        </mxCell>
        <mxCell id="0zVEUA0P2eVRNmL8cQzy-157" style="edgeStyle=orthogonalEdgeStyle;rounded=1;orthogonalLoop=1;jettySize=auto;html=1;exitX=0.5;exitY=1;exitDx=0;exitDy=0;fontSize=14;fillColor=#f8cecc;strokeColor=#FF0000;" edge="1" parent="1" source="0zVEUA0P2eVRNmL8cQzy-141" target="0zVEUA0P2eVRNmL8cQzy-155">
          <mxGeometry relative="1" as="geometry" />
        </mxCell>
        <mxCell id="0zVEUA0P2eVRNmL8cQzy-141" value="Record on EEPROM" style="rounded=1;whiteSpace=wrap;html=1;arcSize=40;fontColor=#000000;fillColor=#ffffc0;strokeColor=#ff0000;verticalAlign=top;align=left;" vertex="1" parent="1">
          <mxGeometry x="550" y="910" width="220" height="110" as="geometry" />
        </mxCell>
        <mxCell id="0zVEUA0P2eVRNmL8cQzy-145" value="Do other stuff for a miniscule time duration" style="text;html=1;strokeColor=#666666;fillColor=#f5f5f5;align=center;verticalAlign=middle;whiteSpace=wrap;rounded=0;fontSize=14;fontColor=#333333;" vertex="1" parent="1">
          <mxGeometry x="600" y="930" width="120" height="70" as="geometry" />
        </mxCell>
        <mxCell id="0zVEUA0P2eVRNmL8cQzy-151" value="" style="edgeStyle=orthogonalEdgeStyle;html=1;verticalAlign=bottom;endArrow=open;endSize=8;strokeColor=#ff0000;rounded=1;" edge="1" parent="1">
          <mxGeometry relative="1" as="geometry">
            <mxPoint x="659.5" y="930" as="targetPoint" />
            <mxPoint x="659.5" y="910" as="sourcePoint" />
            <Array as="points">
              <mxPoint x="660" y="910" />
            </Array>
          </mxGeometry>
        </mxCell>
        <mxCell id="0zVEUA0P2eVRNmL8cQzy-152" value="" style="edgeStyle=orthogonalEdgeStyle;html=1;verticalAlign=bottom;endArrow=open;endSize=8;strokeColor=#ff0000;rounded=1;" edge="1" parent="1">
          <mxGeometry relative="1" as="geometry">
            <mxPoint x="659.5" y="1020" as="targetPoint" />
            <mxPoint x="659.5" y="1000" as="sourcePoint" />
            <Array as="points">
              <mxPoint x="660" y="1000" />
            </Array>
          </mxGeometry>
        </mxCell>
        <mxCell id="0zVEUA0P2eVRNmL8cQzy-154" value="&lt;div&gt;SD write&lt;/div&gt;&lt;div&gt;error&lt;br&gt;&lt;/div&gt;" style="edgeStyle=orthogonalEdgeStyle;html=1;align=left;verticalAlign=bottom;endArrow=open;endSize=8;strokeColor=#ff0000;rounded=1;entryX=0;entryY=0.5;entryDx=0;entryDy=0;" edge="1" parent="1" target="0zVEUA0P2eVRNmL8cQzy-141">
          <mxGeometry x="-0.6" y="5" relative="1" as="geometry">
            <mxPoint x="520" y="990" as="targetPoint" />
            <mxPoint x="480" y="970" as="sourcePoint" />
            <Array as="points">
              <mxPoint x="480" y="965" />
            </Array>
            <mxPoint as="offset" />
          </mxGeometry>
        </mxCell>
        <mxCell id="0zVEUA0P2eVRNmL8cQzy-155" value="" style="ellipse;html=1;shape=endState;fillColor=#000000;strokeColor=#ff0000;fontSize=14;" vertex="1" parent="1">
          <mxGeometry x="480" y="1140" width="30" height="30" as="geometry" />
        </mxCell>
        <mxCell id="0zVEUA0P2eVRNmL8cQzy-156" style="edgeStyle=orthogonalEdgeStyle;rounded=1;orthogonalLoop=1;jettySize=auto;html=1;exitX=0.5;exitY=1;exitDx=0;exitDy=0;fontSize=14;strokeColor=#FF0000;" edge="1" parent="1" target="0zVEUA0P2eVRNmL8cQzy-155">
          <mxGeometry relative="1" as="geometry">
            <mxPoint x="320" y="1090" as="sourcePoint" />
            <mxPoint x="390" y="1130" as="targetPoint" />
            <Array as="points">
              <mxPoint x="320" y="1110" />
              <mxPoint x="495" y="1110" />
            </Array>
          </mxGeometry>
        </mxCell>
        <mxCell id="0zVEUA0P2eVRNmL8cQzy-158" value="" style="endArrow=classic;html=1;rounded=1;edgeStyle=orthogonalEdgeStyle;" edge="1" parent="1" source="0zVEUA0P2eVRNmL8cQzy-155" target="0zVEUA0P2eVRNmL8cQzy-115">
          <mxGeometry relative="1" as="geometry">
            <mxPoint x="660" y="520" as="sourcePoint" />
            <mxPoint x="860" y="580" as="targetPoint" />
            <Array as="points">
              <mxPoint x="800" y="1155" />
              <mxPoint x="800" y="475" />
            </Array>
          </mxGeometry>
        </mxCell>
        <mxCell id="0zVEUA0P2eVRNmL8cQzy-159" value="&lt;div&gt;Stay powered off for&lt;/div&gt;&lt;div&gt;vast majority of the time,&lt;/div&gt;&lt;div&gt;until RTC fires (hrs) or&lt;/div&gt;&lt;div&gt;button is pressed (rare) or&lt;/div&gt;&lt;div&gt;battery is replaced (rare)&lt;br&gt;&lt;/div&gt;" style="edgeLabel;resizable=0;html=1;align=center;verticalAlign=middle;" connectable="0" vertex="1" parent="0zVEUA0P2eVRNmL8cQzy-158">
          <mxGeometry relative="1" as="geometry" />
        </mxCell>
        <mxCell id="0zVEUA0P2eVRNmL8cQzy-161" value="Actual Implementation" style="text;html=1;strokeColor=none;fillColor=none;align=center;verticalAlign=middle;whiteSpace=wrap;rounded=0;fontSize=14;" vertex="1" parent="1">
          <mxGeometry x="305" y="390" width="215" height="30" as="geometry" />
        </mxCell>
        <mxCell id="0zVEUA0P2eVRNmL8cQzy-162" value="" style="endArrow=classic;html=1;rounded=1;edgeStyle=orthogonalEdgeStyle;entryX=0.5;entryY=1;entryDx=0;entryDy=0;exitX=0;exitY=0.25;exitDx=0;exitDy=0;" edge="1" parent="1" source="0zVEUA0P2eVRNmL8cQzy-16" target="0zVEUA0P2eVRNmL8cQzy-15">
          <mxGeometry relative="1" as="geometry">
            <mxPoint x="560" y="250" as="sourcePoint" />
            <mxPoint x="450" y="280" as="targetPoint" />
            <Array as="points">
              <mxPoint x="380" y="195" />
            </Array>
          </mxGeometry>
        </mxCell>
        <mxCell id="0zVEUA0P2eVRNmL8cQzy-163" value="batt replaced" style="edgeLabel;resizable=0;html=1;align=left;verticalAlign=bottom;" connectable="0" vertex="1" parent="0zVEUA0P2eVRNmL8cQzy-162">
          <mxGeometry x="-1" relative="1" as="geometry">
            <mxPoint x="-77" y="15" as="offset" />
          </mxGeometry>
        </mxCell>
      </root>
    </mxGraphModel>
  </diagram>
</mxfile>
